<svg width="51" height="51" viewBox="0 0 51 51" fill="none" xmlns="http://www.w3.org/2000/svg">
<path d="M15 24H19.1667V28.1667H15V24ZM15 32.3333H19.1667V36.5H15V32.3333ZM23.3333 24H27.5V28.1667H23.3333V24ZM23.3333 32.3333H27.5V36.5H23.3333V32.3333ZM31.6667 24H35.8333V28.1667H31.6667V24ZM31.6667 32.3333H35.8333V36.5H31.6667V32.3333Z" fill="white"/>
<path d="M11.8889 44.8889H39.1111C41.2558 44.8889 43 43.1447 43 41V13.7778C43 11.6331 41.2558 9.88889 39.1111 9.88889H35.2222V6H31.3333V9.88889H19.6667V6H15.7778V9.88889H11.8889C9.74417 9.88889 8 11.6331 8 13.7778V41C8 43.1447 9.74417 44.8889 11.8889 44.8889ZM39.1111 17.6667L39.1131 41H11.8889V17.6667H39.1111Z" fill="white"/>
</svg>
