<svg width="36" height="29" viewBox="0 0 36 29" fill="none" xmlns="http://www.w3.org/2000/svg">
<path d="M31.5098 0.703125H3.50977C1.57952 0.703125 0.00976562 2.27288 0.00976562 4.20313V25.2031C0.00976562 27.1334 1.57952 28.7031 3.50977 28.7031H31.5098C33.44 28.7031 35.0098 27.1334 35.0098 25.2031V4.20313C35.0098 2.27288 33.44 0.703125 31.5098 0.703125ZM31.5098 4.20313V5.09738L17.5098 15.9876L3.50977 5.09913V4.20313H31.5098ZM3.50977 25.2031V9.53012L16.4353 19.5839C16.7417 19.8246 17.1201 19.9554 17.5098 19.9554C17.8994 19.9554 18.2778 19.8246 18.5843 19.5839L31.5098 9.53012L31.5133 25.2031H3.50977Z" fill="white"/>
</svg>
