<svg width="36" height="36" viewBox="0 0 36 36" fill="none" xmlns="http://www.w3.org/2000/svg">
<path d="M34.5476 18.3482L18.7993 0.8502C18.1362 0.111782 16.8623 0.111782 16.1991 0.8502L0.450892 18.3482C0.224216 18.5995 0.0754272 18.9112 0.0226174 19.2455C-0.0301924 19.5797 0.0152519 19.9221 0.153425 20.231C0.433394 20.8627 1.05982 21.2687 1.751 21.2687L5.25061 21.2687L5.25061 33.5173C5.25061 33.9814 5.43496 34.4264 5.76311 34.7546C6.09126 35.0828 6.53633 35.2671 7.00041 35.2671L12.2498 35.2671C12.7139 35.2671 13.159 35.0828 13.4871 34.7546C13.8153 34.4264 13.9996 33.9814 13.9996 33.5173L13.9996 26.5181L20.9988 26.5181L20.9988 33.5173C20.9988 33.9814 21.1832 34.4264 21.5114 34.7546C21.8395 35.0828 22.2846 35.2671 22.7486 35.2671L27.9981 35.2671C28.4621 35.2671 28.9072 35.0828 29.2354 34.7546C29.5635 34.4264 29.7479 33.9814 29.7479 33.5173L29.7479 21.2687L33.2475 21.2687C33.5864 21.2701 33.9183 21.1729 34.2029 20.989C34.4875 20.805 34.7125 20.5422 34.8503 20.2326C34.9881 19.923 35.0329 19.58 34.9791 19.2454C34.9254 18.9108 34.7754 18.5991 34.5476 18.3482Z" fill="white"/>
</svg>
