<svg width="36" height="36" viewBox="0 0 36 36" fill="none" xmlns="http://www.w3.org/2000/svg">
<path fill-rule="evenodd" clip-rule="evenodd" d="M29.9101 5.64738C28.2958 4.02237 26.375 2.73386 24.259 1.8565C22.1431 0.979136 19.8741 0.530367 17.5835 0.536189C7.97841 0.536189 0.159239 8.35342 0.155356 17.9624C0.155356 21.0334 0.957073 24.0306 2.48092 26.6745L0.00976562 35.7031L9.24796 33.2785C11.8034 34.6696 14.6663 35.399 17.5757 35.4002H17.5835C27.1866 35.4002 35.0058 27.583 35.0097 17.974C35.0163 15.6844 34.569 13.4161 33.6937 11.3003C32.8184 9.18451 31.5324 7.26319 29.9101 5.64738V5.64738ZM17.5835 32.4593H17.5777C14.9833 32.4596 12.4366 31.7616 10.205 30.4385L9.67697 30.124L4.195 31.5625L5.65673 26.2183L5.31314 25.6709C3.86265 23.3617 3.09479 20.6894 3.09822 17.9624C3.10211 9.97627 9.59932 3.47906 17.5893 3.47906C19.4922 3.47483 21.377 3.84804 23.1347 4.5771C24.8923 5.30616 26.488 6.37658 27.8292 7.72641C29.1776 9.06981 30.2463 10.6671 30.9737 12.4261C31.7011 14.185 32.0726 16.0707 32.0668 17.974C32.0629 25.9602 25.5657 32.4593 17.5835 32.4593ZM25.5288 21.6099C25.0921 21.3906 22.9529 20.3384 22.553 20.1928C22.155 20.0472 21.8658 19.9754 21.5746 20.4102C21.2834 20.8451 20.4487 21.8254 20.1944 22.1166C19.9401 22.4077 19.6858 22.4427 19.251 22.2253C18.8162 22.0079 17.4127 21.5478 15.7491 20.0647C14.4543 18.9097 13.5807 17.4848 13.3264 17.0481C13.0721 16.6113 13.2993 16.3764 13.5186 16.159C13.7147 15.9649 13.9534 15.6504 14.1709 15.3961C14.3883 15.1418 14.4601 14.9613 14.6057 14.6701C14.7513 14.3789 14.6795 14.1246 14.5688 13.9072C14.4601 13.6879 13.5885 11.5448 13.2255 10.6732C12.8741 9.82874 12.515 9.94133 12.2471 9.92968C11.9697 9.91833 11.692 9.91315 11.4143 9.91415C11.1935 9.91978 10.9763 9.97096 10.7762 10.0645C10.5761 10.158 10.3975 10.2919 10.2516 10.4577C9.85168 10.8945 8.72772 11.9466 8.72772 14.0897C8.72772 16.2328 10.2884 18.304 10.5059 18.5952C10.7233 18.8864 13.5768 23.2832 17.9446 25.1701C18.985 25.6185 19.7965 25.8864 20.4274 26.0883C21.4698 26.4202 22.419 26.3717 23.1703 26.261C24.0069 26.1368 25.7463 25.2089 26.1093 24.1917C26.4723 23.1745 26.4723 22.3029 26.3636 22.1204C26.2549 21.938 25.9617 21.8273 25.5288 21.6099" fill="white"/>
</svg>
