<svg width="768" height="692" viewBox="0 0 768 692" fill="none" xmlns="http://www.w3.org/2000/svg">
<path d="M769.016 571.476L8.56647 574.871C8.56647 574.871 356.388 603.357 509.503 604.976C662.617 606.596 769.016 571.476 769.016 571.476Z" fill="#132426"/>
<rect width="768" height="444.516" transform="translate(769.016 571.476) rotate(179.744)" fill="#132426"/>
<path d="M767.032 126.964L3.56351 130.373C3.56351 130.373 289.176 71.0896 519.264 83.5684C749.352 96.0471 767.032 126.964 767.032 126.964Z" fill="#132426"/>
<g style="mix-blend-mode:lighten">
<path d="M568.256 691.259C433.046 695.225 304.065 623.391 248.53 499.826C203.485 399.601 197.05 294.889 240.205 206.103C283.357 117.323 376.141 44.3628 529.749 7.74026C606.462 -10.5493 659.308 7.18183 695.366 45.4722C731.463 83.8034 750.807 142.811 760.303 207.206C776.684 318.292 763.728 445.138 757.225 508.809C756.189 518.954 755.316 527.495 754.753 534.113C750.662 582.128 733.271 620.537 702.325 647.376C671.372 674.221 626.801 689.542 568.256 691.259Z" fill="#C4C4C4" fill-opacity="0.05"/>
<path d="M568.256 691.259C433.046 695.225 304.065 623.391 248.53 499.826C203.485 399.601 197.05 294.889 240.205 206.103C283.357 117.323 376.141 44.3628 529.749 7.74026C606.462 -10.5493 659.308 7.18183 695.366 45.4722C731.463 83.8034 750.807 142.811 760.303 207.206C776.684 318.292 763.728 445.138 757.225 508.809C756.189 518.954 755.316 527.495 754.753 534.113C750.662 582.128 733.271 620.537 702.325 647.376C671.372 674.221 626.801 689.542 568.256 691.259Z" stroke="black"/>
</g>
</svg>
