<svg width="1571" height="832" viewBox="0 0 1571 832" fill="none" xmlns="http://www.w3.org/2000/svg">
<path d="M1571.99 677.625L4.13533 684.624C4.13533 684.624 748.311 748.405 1165.74 775.161C1583.16 801.918 1571.99 677.625 1571.99 677.625Z" fill="#132426"/>
<rect width="1568.05" height="444.962" transform="translate(1572.02 677.625) rotate(179.744)" fill="#132426"/>
<path d="M1569.33 232.67L1.47814 239.67C1.47814 239.67 768.711 114.084 1186.12 137.937C1603.54 161.791 1569.33 232.67 1569.33 232.67Z" fill="#132426"/>
<g style="mix-blend-mode:lighten">
<path d="M1297.75 815.878C1189.99 817.631 1043.03 811.131 909.777 781.954C776.488 752.769 657.07 700.928 604.185 612.122C559.583 537.224 543.296 469.148 551.518 407.474C559.74 345.803 592.48 290.463 646.066 241.055C753.263 142.218 943.794 67.2051 1187.86 12.8658C1309.8 -14.2809 1394.36 7.9637 1452.49 58.8447C1510.65 109.749 1542.45 189.392 1558.66 277.225C1585.88 424.618 1569.17 594.818 1559.8 690.312C1558 708.635 1556.47 724.207 1555.58 736.341C1552.8 773.991 1546.93 797.506 1536.86 811.709C1526.83 825.853 1512.58 830.832 1492.73 831.226C1476.91 831.54 1457.63 828.939 1434.21 825.782C1428.2 824.973 1421.93 824.126 1415.37 823.283C1383.26 819.156 1344.45 815.118 1297.75 815.878Z" fill="#C4C4C4" fill-opacity="0.05"/>
<path d="M1297.75 815.878C1189.99 817.631 1043.03 811.131 909.777 781.954C776.488 752.769 657.07 700.928 604.185 612.122C559.583 537.224 543.296 469.148 551.518 407.474C559.74 345.803 592.48 290.463 646.066 241.055C753.263 142.218 943.794 67.2051 1187.86 12.8658C1309.8 -14.2809 1394.36 7.9637 1452.49 58.8447C1510.65 109.749 1542.45 189.392 1558.66 277.225C1585.88 424.618 1569.17 594.818 1559.8 690.312C1558 708.635 1556.47 724.207 1555.58 736.341C1552.8 773.991 1546.93 797.506 1536.86 811.709C1526.83 825.853 1512.58 830.832 1492.73 831.226C1476.91 831.54 1457.63 828.939 1434.21 825.782C1428.2 824.973 1421.93 824.126 1415.37 823.283C1383.26 819.156 1344.45 815.118 1297.75 815.878Z" stroke="black"/>
</g>
</svg>
